PathFileType	4	(X/Y/Z)	Patient4_TMGait_0pt7_01_left_02.trc.trc
DataRate	CameraRate	NumFrames	NumMarkers	Units	OrigDataRate	OrigDataStartFrame	OrigNumFrames
85.365853658537	85.365853658537	7	33	mm	85.365853658537	89	       141
Frame#	Time	Sacral			L.Shoulder			Chest			R.Shoulder			Neck			R.ASIS			L.ASIS			R.Thigh.Superior			R.Thigh.Lateral			R.Thigh.Inferior			R.Patella			L.Thigh.Superior			L.Thigh.Lateral			L.Thigh.Inferior			L.Patella			L.Shank.Superior			L.Shank.Lateral			L.Shank.Inferior			R.Shank.Superior			R.Shank.Lateral			R.Shank.Inferior			R.Heel			R.Midfoot.Superior			R.Midfoot.Lateral			R.Toe			L.Heel			L.Midfoot.Lateral			L.Midfoot.Superior			L.Toe			L.Elbow			L.Wrist			R.Elbow			R.Wrist			
		X1	Y1	Z1	X2	Y2	Z2	X3	Y3	Z3	X4	Y4	Z4	X5	Y5	Z5	X6	Y6	Z6	X7	Y7	Z7	X8	Y8	Z8	X9	Y9	Z9	X10	Y10	Z10	X11	Y11	Z11	X12	Y12	Z12	X13	Y13	Z13	X14	Y14	Z14	X15	Y15	Z15	X16	Y16	Z16	X17	Y17	Z17	X18	Y18	Z18	X19	Y19	Z19	X20	Y20	Z20	X21	Y21	Z21	X22	Y22	Z22	X23	Y23	Z23	X24	Y24	Z24	X25	Y25	Z25	X26	Y26	Z26	X27	Y27	Z27	X28	Y28	Z28	X29	Y29	Z29	X30	Y30	Z30	X31	Y31	Z31	X32	Y32	Z32	X33	Y33	Z33	

89	3.310857142857	713.621691603045	997.992358855688	550.655101701251	916.072330251359	1423.914212926303	373.969936469764	1009.330672218287	1346.893113433118	538.812272650286	922.701208131205	1427.615786226652	707.724707219858	917.709930918176	1482.963155877966	527.707344872748	940.441529089108	936.985823345222	669.580294685529	929.773512746727	950.177589843491	391.411688689490	1003.448290519919	748.100108826055	649.573490292515	931.683239949673	632.364145754771	705.062909520543	1020.331523414516	589.600830175712	630.829232023379	1031.661074810123	500.358829167619	638.633962898854	972.895280231591	739.363315594955	416.652511266513	889.521819111156	623.415265992922	349.406062394567	977.782161369036	539.245176198819	405.169289343533	970.060059909383	452.461988905094	401.829859188514	898.550586300247	395.407662860674	397.341905770616	756.199151335951	358.640063292964	348.245487426533	736.067577225386	232.912008445367	407.239655046718	1006.746728111975	409.311827065418	645.177840014368	936.172847076878	301.674064951311	700.638779343903	989.369296751229	209.354338464093	642.684245813751	867.635960669244	42.274100067298	599.498428648023	1032.521830014348	97.345051617564	651.087555066550	942.859146369462	36.291981731456	682.173465326264	1150.734559909842	47.820780262342	692.797995482200	542.174184231906	172.656298503762	445.252589693056	599.629736517316	128.115285333487	364.583857826458	704.352215150492	136.222166918882	386.421176736770	782.128794036552	32.728539404717	356.863660222410	872.642312906645	1078.746155345379	254.852887652242	1101.842956027769	974.591139028846	297.263239696649	849.269623077587	1084.726014178237	826.102964036833	918.984527046553	832.098686374653	830.010950301508	
90	3.322571428571	712.667870078807	999.335882943133	553.059307410516	914.780055242894	1425.298029681437	376.270129337912	1008.804529036428	1347.929325409170	540.459509944940	923.263992817414	1428.324297218989	710.208498805642	917.253753896612	1484.039769849891	530.164024589681	939.064180859242	938.076405660786	671.580124307602	928.245257298086	951.126775425136	393.858976222248	1000.119300784619	747.536080777209	652.241963870787	926.695284014765	632.575964772703	706.726636472135	1014.715393364145	588.939182454634	632.270890796570	1024.726153450061	499.786458358607	639.631891535654	976.550334742595	743.348177411900	419.310673147154	898.429177928694	625.583425462847	350.047528819873	988.814563775740	543.533703749266	406.357793897907	982.805342844530	455.713836732821	402.219849231371	910.187334635659	398.358257871941	397.667581464282	766.799015081541	365.219388075116	348.612943882746	743.441782732112	239.882999347461	407.423951561543	999.600476710733	409.002398494883	646.100307864947	928.730754539933	301.505848680565	701.133512857955	981.538983709611	209.145492971170	643.076013425885	859.387726237804	42.237259699845	599.619862612178	1024.341002468094	97.360996250868	651.327195028680	934.597524718587	36.296081578963	682.423801156794	1142.483574432513	47.689632742729	692.927933839137	547.634156241593	186.415823720944	445.056077984104	603.814611922196	139.160096691671	364.750531457651	709.089238896537	142.948548166727	386.987076772475	782.610788700053	33.933544673448	358.119450319634	866.886537110735	1080.295499774727	257.921018427524	1090.571624316266	962.902861737760	298.422113232335	859.337283899471	1082.832736384669	828.356755998541	944.432717723731	834.842503614699	826.519932741286	
91	3.334285714286	711.563921914302	1000.621390528518	555.347828443048	913.452680019024	1426.468901329235	378.334579859178	1008.210176235513	1348.842530267498	541.900288796148	923.800462134274	1429.032360336206	712.484351243705	916.737254047057	1485.031556305344	532.370084521921	937.523823950811	938.990987474353	673.524385312883	926.577066262584	952.136293893838	396.413341356639	996.684830297460	746.999697927851	654.626354219343	921.699392912770	632.778171002066	708.291267793117	1009.052666583628	588.285718677621	633.589310874225	1017.742882598368	499.237036970175	640.530585948277	979.815688435232	747.564913571674	421.974096181819	906.811386733994	628.300204858646	350.642692870144	999.131803379947	548.397175520120	407.539847623389	995.018634843471	459.684094095515	402.672910571802	921.709374975668	401.821339710893	397.985172945638	777.602527849900	371.379117573588	348.914836579503	751.864559750200	246.333292911293	407.593007986343	992.449618469704	408.707368528781	646.912236171810	921.317854642862	301.363805948263	701.606102954724	973.714970562409	208.944991209597	643.395885041175	851.099682587464	42.221412838972	599.723987444630	1016.189933793068	97.362906879930	651.594501252293	926.300525723544	36.315843296548	682.675740581367	1134.214008071426	47.474262556118	693.027877911981	554.731169927266	197.910755762901	444.761039875319	610.045597103876	148.659620118971	364.829052188154	715.607598388125	149.230273580746	387.524395474700	785.932885422216	35.768702317456	359.308344960324	861.320962574277	1081.522956964577	260.997336233803	1078.351782411161	950.483205332339	299.198484739137	869.449127824096	1081.366820912486	830.539833895931	970.173278645672	839.376704351587	822.564163788738	
92	3.346000000000	710.309112798137	1001.856338591364	557.531760470262	912.116968856988	1427.439166929898	380.175438176324	1007.562940013158	1349.637190348463	543.154634071879	924.318444763491	1429.753198252206	714.539458734732	916.195897412624	1485.942556091641	534.330867334383	935.876359032809	939.760303065797	675.420321514918	924.764876655065	953.200069279841	399.029369372007	993.176896585807	746.496049141834	656.701336004012	916.721512496942	632.981768437161	709.751689763322	1003.368690568400	587.644079511575	634.780029247394	1010.753005034065	498.718329746728	641.326370460721	982.669067644623	751.975276542112	424.592310787051	914.568360782255	631.504758710985	351.209853545380	1008.675074001853	553.754952767416	408.674528412047	1006.630570276438	464.307462722982	403.136465066362	933.050531420260	405.722634939751	398.272230562738	788.522108284347	376.919346916175	349.147847206096	761.382480631972	251.999360967647	407.711700544992	985.325726975758	408.431112533916	647.616772038115	913.953391646773	301.257619338546	702.066280687839	965.916187990559	208.760160818724	643.650831665709	842.788067135184	42.226210341932	599.818464510404	1008.061147367230	97.350874875849	651.871783662831	917.986575186716	36.349894139424	682.924719184405	1125.940772852448	47.201410450179	693.108316509999	563.499714237330	206.647523523881	444.416483486030	618.374635997174	156.184605119065	364.805013734848	724.029887971765	154.748025081944	387.932994007030	792.360728502166	38.123748067815	360.230152964746	855.986752182543	1082.444319870481	264.093254875796	1065.124401830343	937.503137075268	299.601214799294	879.599494362033	1080.340700541808	832.604538623063	995.985096203425	845.816176055579	818.148585831902	
93	3.357714285714	708.913124998030	1003.049952288116	559.626292990374	910.790760565370	1428.225420960046	381.809141381259	1006.876608309383	1350.324930970912	544.245887094987	924.822584271316	1430.500839396313	716.367217658087	915.657423079492	1486.776715343653	536.055486926799	934.181698593424	940.423688211058	677.275832713376	922.811249146402	954.304204912998	401.638958190458	989.613075052734	746.020359121004	658.463937346966	911.764675990790	633.193077138846	711.105307204346	997.667805158646	587.013499786092	635.844819465505	1003.774987068752	498.233983730923	642.019823439917	985.106106528436	756.535391223538	427.117727288888	921.641439298156	635.112799538119	351.756001695714	1017.423408377746	559.509522844775	409.725472911181	1017.597644960039	469.501679041196	403.564731226511	944.166093107077	409.976387689850	398.500365326712	799.492868891671	381.674164632256	349.312997795146	772.031510540957	256.668987713433	407.740042781430	978.238246070815	408.174731920419	648.220475451588	906.638810775402	301.190256174390	702.518888490408	958.149429579105	208.595556881550	643.848883604775	834.466719008163	42.249207887123	599.907773662508	999.942458857084	97.324840563780	652.137518025111	909.670651840755	36.393646725595	683.161295110650	1117.675139452644	46.894285254475	693.180311259985	573.968755564168	212.301089113520	444.077797871374	628.805399470906	161.443827679695	364.663091425353	734.431139369798	159.235690628985	388.111577485586	802.022814926341	40.823482616764	360.667037559590	850.913980104965	1083.089462125157	267.211545662609	1050.841525623917	924.173661864429	299.659150437619	889.781976579827	1079.764456379092	834.506342305478	1021.639474317224	854.243065178059	813.286840155576	
94	3.369428571429	707.394092292848	1004.209725089689	561.646435712039	909.484499204652	1428.843866625261	383.254124094296	1006.163788617486	1350.918490697355	545.197777685567	925.315599454803	1431.284286678530	717.968854098968	915.140755190080	1487.535454906366	537.555295849947	932.494402412439	941.020009835398	679.095157804125	920.728485461209	955.429020247691	404.159971789001	985.998946036051	745.562098391020	659.924802386424	906.820940109631	633.413955419431	712.352411168269	991.942979890908	586.390381860236	636.789756573339	996.813367320778	497.783790475761	642.616932315532	987.133162393807	761.194948029683	429.507531659313	928.004967718230	639.022789953781	352.279051250923	1025.381036182328	565.551814028924	410.665760665581	1027.892704238680	475.170146617983	403.922796997961	955.022589535053	414.492412393826	398.637908023887	810.466181315271	385.525056564922	349.417632045801	783.824888545068	260.200042831180	407.635282992539	971.183132275287	407.936195535696	648.733220436558	899.364755257778	301.159014803203	702.965067398861	950.413437560266	208.452179977852	643.999281088506	826.146175040833	42.286770479428	599.993652329027	991.821602233460	97.284857887896	652.372985400120	901.363505604522	36.441194463911	683.374640952816	1109.424397749507	46.570210146541	693.253537631334	586.156165875475	214.730996690334	443.791345947475	641.297222439033	164.297997081380	364.385518202685	746.829034473854	162.507683569709	387.969779071023	814.905369106613	43.667197218635	360.420188193113	846.119809630793	1083.494558967170	270.344763372498	1035.475253517171	910.741048744970	299.417202220225	899.988306102909	1079.641958346119	836.208541443633	1046.902431789387	864.697038849488	808.003252096167	
95	3.381142857143	705.774393021295	1005.339787888040	563.602957140508	908.203787161721	1429.307635064840	384.528660805631	1005.436282813274	1351.426917777831	546.031424608318	925.799314415819	1432.103398424742	719.352741634747	914.656283985763	1488.216635892899	538.841898408695	930.853994145804	941.578961574046	680.874937404870	918.539720445064	956.552974987316	406.511361158324	982.332158658361	745.108500160321	661.101473060291	901.881533491366	633.642192993062	713.496325642304	986.184642220514	585.769700139806	637.623153621774	989.867399312283	497.364238759018	643.128765570060	988.760660112169	765.896027337311	431.726075792115	933.657081832747	643.122504059787	352.771693153248	1032.566114284456	571.766651733876	411.481000404935	1037.497485635844	481.205747239253	404.188613811490	965.590100533834	419.182553276917	398.654149346033	821.405584793762	388.407544399718	349.473632352923	796.745370727623	262.531346760436	407.355218807453	964.151011821727	407.711058486209	649.167695094624	892.117339109189	301.157122101951	703.403352710168	942.702765545481	208.327538212709	644.112531569103	817.833702509041	42.334919267999	600.075876140508	983.688987810312	97.231155665282	652.565727507696	893.071729870723	36.487157109161	683.556220502471	1101.192174154186	46.240253091411	693.334734144119	600.062219020894	213.980019641842	443.581240171335	655.771732146558	164.757196403403	363.951958372458	761.180645703526	164.475722085591	387.439453435132	830.863893054899	46.471771008455	359.345854164577	841.606468295400	1083.696267886684	273.475383722943	1019.026902439349	897.477625785830	298.930288552759	910.208439357829	1079.969083074194	837.685488019467	1071.538110764836	877.168214769198	802.333911566841	
